<?xml version="1.0" encoding="UTF-8"?>
<!DOCTYPE svg PUBLIC "-//W3C//DTD SVG 1.1//EN" "http://www.w3.org/Graphics/SVG/1.1/DTD/svg11.dtd">
<!-- Creator: CorelDRAW -->
<svg xmlns="http://www.w3.org/2000/svg" xml:space="preserve" width="700px" height="758px" version="1.1" style="shape-rendering:geometricPrecision; text-rendering:geometricPrecision; image-rendering:optimizeQuality; fill-rule:evenodd; clip-rule:evenodd"
viewBox="0 0 415.99 450.22"
 xmlns:xlink="http://www.w3.org/1999/xlink"
 xmlns:xodm="http://www.corel.com/coreldraw/odm/2003">
 <defs>
  <style type="text/css">
   <![CDATA[
    .fil0 {fill:#373435}
   ]]>
  </style>
 </defs>
 <g id="Layer_x0020_1">
  <metadata id="CorelCorpID_0Corel-Layer"/>
  <g id="_2322559975024">
   <g>
    <path class="fil0" d="M223.36 255.06l26.89 -36.95 -4.47 -218.11 -22.13 0 -0.29 255.06zm-24.4 -255.06l-31.74 0 -3.3 211.88 36.24 44.41 -1.2 -256.29zm-56.44 0l-30.54 0 -0.25 146.2 31.09 36.5 -0.3 -182.7zm-52.4 1.22l-32.23 -0.9 -1.82 71.38 30.62 39.87 3.43 -110.35zm-50.27 -0.8l-39.85 0 39.9 51.18 -0.05 -51.18zm230.63 192.15l30.03 -40.55 -0.69 -152.02 -29.34 0 0 192.57zm52.94 -74.12l38.11 -49.41 -2.1 -68.62 -34.92 -0.1 -1.09 118.13zm51.53 -66.41l38.15 -51.83 -38.38 0.08 0.23 51.75z"/>
    <polygon class="fil0" points="38.52,0.36 57.89,0.36 57.89,359.98 38.52,336.1 "/>
    <polygon class="fil0" points="0,0.36 19.37,0.36 19.37,312.48 0,288.6 "/>
    <polygon class="fil0" points="111.73,0.36 131.1,0.36 131.1,450.22 111.73,426.34 "/>
    <polygon class="fil0" points="74.53,0.89 93.9,1.39 93.9,404.37 74.53,380.49 "/>
    <polygon class="fil0" points="323.42,0.36 342.79,0.36 342.79,375.42 323.42,399.3 "/>
    <polygon class="fil0" points="284.9,0.36 304.27,0.36 304.27,422.92 284.9,446.8 "/>
    <polygon class="fil0" points="396.62,0.36 415.99,0.36 415.99,285.18 396.62,309.06 "/>
    <polygon class="fil0" points="359.43,0.36 378.8,0.36 378.8,331.03 359.43,354.91 "/>
   </g>
  </g>
 </g>
</svg>
